<svg width="160" height="80" viewBox="0 0 160 80" fill="none" xmlns="http://www.w3.org/2000/svg">
<path d="M12.528 32.36C10.992 32.36 9.528 32.12 8.136 31.64C6.744 31.16 5.532 30.488 4.5 29.624C3.468 28.76 2.712 27.764 2.232 26.636C1.992 26.132 1.992 25.664 2.232 25.232C2.496 24.8 2.928 24.524 3.528 24.404C3.96 24.308 4.38 24.38 4.788 24.62C5.22 24.836 5.544 25.172 5.76 25.628C6.048 26.228 6.516 26.78 7.164 27.284C7.836 27.788 8.64 28.196 9.576 28.508C10.512 28.82 11.496 28.976 12.528 28.976C13.68 28.976 14.736 28.796 15.696 28.436C16.68 28.076 17.472 27.56 18.072 26.888C18.672 26.192 18.972 25.34 18.972 24.332C18.972 23.06 18.468 21.92 17.46 20.912C16.476 19.904 14.844 19.28 12.564 19.04C9.588 18.752 7.248 17.876 5.544 16.412C3.84 14.948 2.988 13.136 2.988 10.976C2.988 9.392 3.432 8.048 4.32 6.944C5.208 5.84 6.408 5 7.92 4.424C9.456 3.848 11.16 3.56 13.032 3.56C15.216 3.56 17.004 4.004 18.396 4.892C19.788 5.78 20.94 6.956 21.852 8.42C22.188 8.948 22.32 9.452 22.248 9.932C22.2 10.388 21.972 10.748 21.564 11.012C21.108 11.3 20.616 11.36 20.088 11.192C19.56 11.024 19.164 10.712 18.9 10.256C18.3 9.224 17.52 8.42 16.56 7.844C15.624 7.268 14.412 6.968 12.924 6.944C11.148 6.92 9.66 7.256 8.46 7.952C7.26 8.624 6.66 9.668 6.66 11.084C6.66 11.804 6.84 12.5 7.2 13.172C7.584 13.82 8.268 14.384 9.252 14.864C10.26 15.344 11.7 15.68 13.572 15.872C16.428 16.16 18.648 17.036 20.232 18.5C21.84 19.94 22.644 21.848 22.644 24.224C22.644 25.592 22.356 26.78 21.78 27.788C21.228 28.796 20.472 29.648 19.512 30.344C18.576 31.016 17.496 31.52 16.272 31.856C15.072 32.192 13.824 32.36 12.528 32.36ZM31.8412 40.424C31.3132 40.424 30.8692 40.244 30.5092 39.884C30.1732 39.548 30.0052 39.116 30.0052 38.588V22.172C30.0292 20.276 30.4732 18.572 31.3372 17.06C32.2012 15.548 33.3772 14.36 34.8652 13.496C36.3532 12.608 38.0332 12.164 39.9052 12.164C41.8012 12.164 43.4932 12.608 44.9812 13.496C46.4692 14.36 47.6452 15.548 48.5092 17.06C49.3972 18.572 49.8412 20.276 49.8412 22.172C49.8412 24.068 49.4332 25.772 48.6172 27.284C47.8252 28.772 46.7332 29.96 45.3412 30.848C43.9492 31.712 42.3772 32.144 40.6252 32.144C39.2092 32.144 37.9012 31.856 36.7012 31.28C35.5252 30.68 34.5172 29.876 33.6772 28.868V38.588C33.6772 39.116 33.5092 39.548 33.1732 39.884C32.8372 40.244 32.3932 40.424 31.8412 40.424ZM39.9052 28.904C41.1292 28.904 42.2212 28.616 43.1812 28.04C44.1412 27.44 44.8972 26.636 45.4492 25.628C46.0252 24.596 46.3132 23.444 46.3132 22.172C46.3132 20.876 46.0252 19.724 45.4492 18.716C44.8972 17.684 44.1412 16.88 43.1812 16.304C42.2212 15.704 41.1292 15.404 39.9052 15.404C38.7052 15.404 37.6132 15.704 36.6292 16.304C35.6692 16.88 34.9132 17.684 34.3612 18.716C33.8092 19.724 33.5332 20.876 33.5332 22.172C33.5332 23.444 33.8092 24.596 34.3612 25.628C34.9132 26.636 35.6692 27.44 36.6292 28.04C37.6132 28.616 38.7052 28.904 39.9052 28.904ZM59.0977 32C57.8977 32 57.2977 31.4 57.2977 30.2V14.108C57.2977 12.908 57.8977 12.308 59.0977 12.308C60.2977 12.308 60.8977 12.908 60.8977 14.108V14.792C61.6177 13.952 62.4937 13.292 63.5257 12.812C64.5817 12.332 65.7217 12.092 66.9457 12.092C68.3857 12.092 69.4537 12.332 70.1497 12.812C70.8697 13.268 71.1457 13.82 70.9777 14.468C70.8577 14.972 70.6177 15.308 70.2577 15.476C69.8977 15.62 69.4777 15.644 68.9977 15.548C67.4617 15.236 66.0817 15.212 64.8577 15.476C63.6337 15.74 62.6617 16.232 61.9417 16.952C61.2457 17.672 60.8977 18.584 60.8977 19.688V30.2C60.8977 31.4 60.2977 32 59.0977 32ZM84.5961 32.144C82.6041 32.144 80.8281 31.724 79.2681 30.884C77.7321 30.02 76.5201 28.844 75.6321 27.356C74.7681 25.844 74.3361 24.116 74.3361 22.172C74.3361 20.204 74.7441 18.476 75.5601 16.988C76.4001 15.476 77.5521 14.3 79.0161 13.46C80.4801 12.596 82.1601 12.164 84.0561 12.164C85.9281 12.164 87.5361 12.584 88.8801 13.424C90.2241 14.24 91.2441 15.38 91.9401 16.844C92.6601 18.284 93.0201 19.952 93.0201 21.848C93.0201 22.304 92.8641 22.688 92.5521 23C92.2401 23.288 91.8441 23.432 91.3641 23.432H77.6841C77.9481 25.088 78.7041 26.444 79.9521 27.5C81.2241 28.532 82.7721 29.048 84.5961 29.048C85.3401 29.048 86.0961 28.916 86.8641 28.652C87.6561 28.364 88.2921 28.04 88.7721 27.68C89.1321 27.416 89.5161 27.284 89.9241 27.284C90.3561 27.26 90.7281 27.38 91.0401 27.644C91.4481 28.004 91.6641 28.4 91.6881 28.832C91.7121 29.264 91.5201 29.636 91.1121 29.948C90.2961 30.596 89.2761 31.124 88.0521 31.532C86.8521 31.94 85.7001 32.144 84.5961 32.144ZM84.0561 15.26C82.2801 15.26 80.8521 15.752 79.7721 16.736C78.6921 17.72 78.0081 18.992 77.7201 20.552H89.7081C89.4921 19.016 88.9041 17.756 87.9441 16.772C86.9841 15.764 85.6881 15.26 84.0561 15.26ZM107.188 32.144C105.436 32.144 103.864 31.712 102.472 30.848C101.08 29.96 99.9763 28.772 99.1603 27.284C98.3683 25.772 97.9723 24.068 97.9723 22.172C97.9723 20.276 98.4043 18.572 99.2683 17.06C100.156 15.548 101.344 14.36 102.832 13.496C104.344 12.608 106.036 12.164 107.908 12.164C109.78 12.164 111.46 12.608 112.948 13.496C114.436 14.36 115.612 15.548 116.476 17.06C117.364 18.572 117.808 20.276 117.808 22.172V30.2C117.808 30.728 117.628 31.172 117.268 31.532C116.932 31.868 116.5 32.036 115.972 32.036C115.444 32.036 115 31.868 114.64 31.532C114.304 31.172 114.136 30.728 114.136 30.2V28.868C113.296 29.876 112.276 30.68 111.076 31.28C109.9 31.856 108.604 32.144 107.188 32.144ZM107.908 28.904C109.132 28.904 110.224 28.616 111.184 28.04C112.144 27.44 112.9 26.636 113.452 25.628C114.004 24.596 114.28 23.444 114.28 22.172C114.28 20.876 114.004 19.724 113.452 18.716C112.9 17.684 112.144 16.88 111.184 16.304C110.224 15.704 109.132 15.404 107.908 15.404C106.708 15.404 105.616 15.704 104.632 16.304C103.672 16.88 102.904 17.684 102.328 18.716C101.776 19.724 101.5 20.876 101.5 22.172C101.5 23.444 101.776 24.596 102.328 25.628C102.904 26.636 103.672 27.44 104.632 28.04C105.616 28.616 106.708 28.904 107.908 28.904ZM134.181 32.144C132.309 32.144 130.617 31.712 129.105 30.848C127.617 29.96 126.429 28.76 125.541 27.248C124.677 25.736 124.245 24.032 124.245 22.136C124.245 20.24 124.641 18.548 125.433 17.06C126.249 15.548 127.353 14.36 128.745 13.496C130.137 12.608 131.709 12.164 133.461 12.164C134.877 12.164 136.185 12.464 137.385 13.064C138.585 13.64 139.593 14.432 140.409 15.44V5.72C140.409 5.168 140.577 4.724 140.913 4.388C141.273 4.052 141.717 3.884 142.245 3.884C142.797 3.884 143.241 4.052 143.577 4.388C143.913 4.724 144.081 5.168 144.081 5.72V22.136C144.081 24.032 143.637 25.736 142.749 27.248C141.885 28.76 140.709 29.96 139.221 30.848C137.733 31.712 136.053 32.144 134.181 32.144ZM134.181 28.904C135.405 28.904 136.497 28.616 137.457 28.04C138.417 27.44 139.173 26.624 139.725 25.592C140.277 24.56 140.553 23.408 140.553 22.136C140.553 20.84 140.277 19.688 139.725 18.68C139.173 17.672 138.417 16.88 137.457 16.304C136.497 15.704 135.405 15.404 134.181 15.404C132.981 15.404 131.889 15.704 130.905 16.304C129.945 16.88 129.177 17.672 128.601 18.68C128.049 19.688 127.773 20.84 127.773 22.136C127.773 23.408 128.049 24.56 128.601 25.592C129.177 26.624 129.945 27.44 130.905 28.04C131.889 28.616 132.981 28.904 134.181 28.904Z" fill="white"/>
<path d="M41.528 72.36C39.992 72.36 38.528 72.12 37.136 71.64C35.744 71.16 34.532 70.488 33.5 69.624C32.468 68.76 31.712 67.764 31.232 66.636C30.992 66.132 30.992 65.664 31.232 65.232C31.496 64.8 31.928 64.524 32.528 64.404C32.96 64.308 33.38 64.38 33.788 64.62C34.22 64.836 34.544 65.172 34.76 65.628C35.048 66.228 35.516 66.78 36.164 67.284C36.836 67.788 37.64 68.196 38.576 68.508C39.512 68.82 40.496 68.976 41.528 68.976C42.68 68.976 43.736 68.796 44.696 68.436C45.68 68.076 46.472 67.56 47.072 66.888C47.672 66.192 47.972 65.34 47.972 64.332C47.972 63.06 47.468 61.92 46.46 60.912C45.476 59.904 43.844 59.28 41.564 59.04C38.588 58.752 36.248 57.876 34.544 56.412C32.84 54.948 31.988 53.136 31.988 50.976C31.988 49.392 32.432 48.048 33.32 46.944C34.208 45.84 35.408 45 36.92 44.424C38.456 43.848 40.16 43.56 42.032 43.56C44.216 43.56 46.004 44.004 47.396 44.892C48.788 45.78 49.94 46.956 50.852 48.42C51.188 48.948 51.32 49.452 51.248 49.932C51.2 50.388 50.972 50.748 50.564 51.012C50.108 51.3 49.616 51.36 49.088 51.192C48.56 51.024 48.164 50.712 47.9 50.256C47.3 49.224 46.52 48.42 45.56 47.844C44.624 47.268 43.412 46.968 41.924 46.944C40.148 46.92 38.66 47.256 37.46 47.952C36.26 48.624 35.66 49.668 35.66 51.084C35.66 51.804 35.84 52.5 36.2 53.172C36.584 53.82 37.268 54.384 38.252 54.864C39.26 55.344 40.7 55.68 42.572 55.872C45.428 56.16 47.648 57.036 49.232 58.5C50.84 59.94 51.644 61.848 51.644 64.224C51.644 65.592 51.356 66.78 50.78 67.788C50.228 68.796 49.472 69.648 48.512 70.344C47.576 71.016 46.496 71.52 45.272 71.856C44.072 72.192 42.824 72.36 41.528 72.36ZM60.8412 72.036C60.3132 72.036 59.8692 71.868 59.5092 71.532C59.1732 71.172 59.0052 70.728 59.0052 70.2V54.18C59.0052 53.628 59.1732 53.184 59.5092 52.848C59.8692 52.512 60.3132 52.344 60.8412 52.344C61.3932 52.344 61.8372 52.512 62.1732 52.848C62.5092 53.184 62.6772 53.604 62.6772 54.108C63.3012 53.484 64.0452 53.004 64.9092 52.668C65.7732 52.308 66.7092 52.128 67.7172 52.128C70.2372 52.128 72.1332 53.076 73.4052 54.972C74.1012 54.084 74.9892 53.388 76.0692 52.884C77.1492 52.38 78.3612 52.128 79.7052 52.128C81.7692 52.128 83.4492 52.8 84.7452 54.144C86.0412 55.488 86.6892 57.408 86.6892 59.904V70.2C86.6892 70.728 86.5212 71.172 86.1852 71.532C85.8492 71.868 85.4052 72.036 84.8532 72.036C84.3252 72.036 83.8812 71.868 83.5212 71.532C83.1852 71.172 83.0172 70.728 83.0172 70.2V59.904C83.0172 58.392 82.6452 57.276 81.9012 56.556C81.1572 55.812 80.1852 55.44 78.9852 55.44C77.7372 55.44 76.7052 55.872 75.8892 56.736C75.0972 57.6 74.7012 58.704 74.7012 60.048V70.2C74.7012 70.728 74.5332 71.172 74.1972 71.532C73.8612 71.868 73.4172 72.036 72.8652 72.036C72.3372 72.036 71.8932 71.868 71.5332 71.532C71.1972 71.172 71.0292 70.728 71.0292 70.2V59.904C71.0292 58.392 70.6572 57.276 69.9132 56.556C69.1692 55.812 68.1972 55.44 66.9972 55.44C65.7492 55.44 64.7172 55.872 63.9012 56.736C63.0852 57.6 62.6772 58.704 62.6772 60.048V70.2C62.6772 70.728 62.5092 71.172 62.1732 71.532C61.8372 71.868 61.3932 72.036 60.8412 72.036ZM96.9663 72C96.4383 72 95.9943 71.832 95.6343 71.496C95.2983 71.136 95.1303 70.692 95.1303 70.164V54.144C95.1303 53.592 95.2983 53.148 95.6343 52.812C95.9943 52.476 96.4383 52.308 96.9663 52.308C97.5183 52.308 97.9623 52.476 98.2983 52.812C98.6343 53.148 98.8023 53.592 98.8023 54.144V70.164C98.8023 70.692 98.6343 71.136 98.2983 71.496C97.9623 71.832 97.5183 72 96.9663 72ZM96.9663 49.104C96.3183 49.104 95.7543 48.876 95.2743 48.42C94.8183 47.94 94.5903 47.376 94.5903 46.728C94.5903 46.08 94.8183 45.528 95.2743 45.072C95.7543 44.592 96.3183 44.352 96.9663 44.352C97.6143 44.352 98.1663 44.592 98.6223 45.072C99.1023 45.528 99.3423 46.08 99.3423 46.728C99.3423 47.376 99.1023 47.94 98.6223 48.42C98.1663 48.876 97.6143 49.104 96.9663 49.104ZM112.294 72C111.238 72 110.302 71.712 109.486 71.136C108.67 70.56 108.034 69.78 107.578 68.796C107.122 67.788 106.894 66.636 106.894 65.34V45.684C106.894 45.156 107.062 44.724 107.398 44.388C107.734 44.052 108.166 43.884 108.694 43.884C109.222 43.884 109.654 44.052 109.99 44.388C110.326 44.724 110.494 45.156 110.494 45.684V65.34C110.494 66.228 110.662 66.96 110.998 67.536C111.334 68.112 111.766 68.4 112.294 68.4H113.194C113.674 68.4 114.058 68.568 114.346 68.904C114.658 69.24 114.814 69.672 114.814 70.2C114.814 70.728 114.586 71.16 114.13 71.496C113.674 71.832 113.086 72 112.366 72H112.294ZM128.549 72.144C126.557 72.144 124.781 71.724 123.221 70.884C121.685 70.02 120.473 68.844 119.585 67.356C118.721 65.844 118.289 64.116 118.289 62.172C118.289 60.204 118.697 58.476 119.513 56.988C120.353 55.476 121.505 54.3 122.969 53.46C124.433 52.596 126.113 52.164 128.009 52.164C129.881 52.164 131.489 52.584 132.833 53.424C134.177 54.24 135.197 55.38 135.893 56.844C136.613 58.284 136.973 59.952 136.973 61.848C136.973 62.304 136.817 62.688 136.505 63C136.193 63.288 135.797 63.432 135.317 63.432H121.637C121.901 65.088 122.657 66.444 123.905 67.5C125.177 68.532 126.725 69.048 128.549 69.048C129.293 69.048 130.049 68.916 130.817 68.652C131.609 68.364 132.245 68.04 132.725 67.68C133.085 67.416 133.469 67.284 133.877 67.284C134.309 67.26 134.681 67.38 134.993 67.644C135.401 68.004 135.617 68.4 135.641 68.832C135.665 69.264 135.473 69.636 135.065 69.948C134.249 70.596 133.229 71.124 132.005 71.532C130.805 71.94 129.653 72.144 128.549 72.144ZM128.009 55.26C126.233 55.26 124.805 55.752 123.725 56.736C122.645 57.72 121.961 58.992 121.673 60.552H133.661C133.445 59.016 132.857 57.756 131.897 56.772C130.937 55.764 129.641 55.26 128.009 55.26ZM150.8 72.144C149.12 72.144 147.56 71.892 146.12 71.388C144.704 70.86 143.6 70.2 142.808 69.408C142.448 69.024 142.292 68.592 142.34 68.112C142.412 67.608 142.652 67.2 143.06 66.888C143.54 66.504 144.008 66.348 144.464 66.42C144.944 66.468 145.352 66.672 145.688 67.032C146.096 67.488 146.744 67.92 147.632 68.328C148.544 68.712 149.552 68.904 150.656 68.904C152.048 68.904 153.104 68.676 153.824 68.22C154.568 67.764 154.952 67.176 154.976 66.456C155 65.736 154.652 65.112 153.932 64.584C153.236 64.056 151.952 63.624 150.08 63.288C147.656 62.808 145.892 62.088 144.788 61.128C143.708 60.168 143.168 58.992 143.168 57.6C143.168 56.376 143.528 55.368 144.248 54.576C144.968 53.76 145.892 53.16 147.02 52.776C148.148 52.368 149.324 52.164 150.548 52.164C152.132 52.164 153.536 52.416 154.76 52.92C155.984 53.424 156.956 54.12 157.676 55.008C158.012 55.392 158.168 55.8 158.144 56.232C158.12 56.64 157.916 56.988 157.532 57.276C157.148 57.54 156.692 57.624 156.164 57.528C155.636 57.432 155.192 57.216 154.832 56.88C154.232 56.304 153.584 55.908 152.888 55.692C152.192 55.476 151.388 55.368 150.476 55.368C149.42 55.368 148.52 55.548 147.776 55.908C147.056 56.268 146.696 56.796 146.696 57.492C146.696 57.924 146.804 58.32 147.02 58.68C147.26 59.016 147.716 59.328 148.388 59.616C149.06 59.88 150.044 60.144 151.34 60.408C154.052 60.936 155.924 61.692 156.956 62.676C158.012 63.636 158.54 64.824 158.54 66.24C158.54 67.344 158.24 68.34 157.64 69.228C157.064 70.116 156.2 70.824 155.048 71.352C153.92 71.88 152.504 72.144 150.8 72.144Z" fill="#FFDA15"/>
</svg>
